<svg width="256" height="256" xmlns="http://www.w3.org/2000/svg" xml:space="preserve" version="1.1">

 <g>
  <title>Layer 1</title>
  <g id="svg_1" fill-rule=" nonzero" fill=" none" stroke-miterlimit="10" stroke-linejoin=" miter" stroke-linecap=" butt" stroke-dasharray=" none" stroke-width="0" stroke=" none" transform="translate(1.40659 1.40659) scale(2.81 2.81)">
   <path id="svg_2" fill-rule=" nonzero" fill=" rgb(255,161,122)" stroke-miterlimit="10" stroke-linejoin=" miter" stroke-dasharray=" none" stroke=" none" stroke-linecap=" butt" d="m56.81758,32.63899c0.591,0.068 1.192,0.103 1.801,0.103c8.607,0 15.584,-6.977 15.584,-15.584c0,-8.607 -6.977,-15.584 -15.584,-15.584c-5.315,0 -10.002,2.665 -12.815,6.727c-2.813,-4.062 -7.5,-6.727 -12.815,-6.727c-8.607,0 -15.584,6.977 -15.584,15.584c0,8.607 6.977,15.584 15.584,15.584c0.609,0 1.21,-0.035 1.801,-0.103"/>
   <polyline id="svg_3" fill-rule=" nonzero" fill=" rgb(255,161,122)" stroke-miterlimit="10" stroke-linejoin=" miter" stroke-linecap=" butt" stroke-dasharray=" none" stroke=" none" points="34.793583393096924,25.373986184597015 34.793583393096924,67.07398694753647 56.81358003616333,67.07398694753647 56.81358003616333,25.373986184597015 "/>
   <path id="svg_4" fill-rule=" nonzero" fill=" rgb(236,85,105)" stroke-miterlimit="10" stroke-linejoin=" miter" stroke-dasharray=" none" stroke=" none" stroke-linecap=" butt" d="m56.26758,67.07699l-20.928,0c-3.087,0 -5.589,2.502 -5.589,5.589l0,0.855c0,8.866 7.187,16.053 16.053,16.053l0,0c8.866,0 16.053,-7.187 16.053,-16.053l0,-0.855c0,-3.087 -2.503,-5.589 -5.589,-5.589z"/>
   <path id="svg_5" fill-rule=" nonzero" fill=" rgb(0,0,0)" stroke-miterlimit="10" stroke-linejoin=" miter" stroke-dasharray=" none" stroke=" none" stroke-linecap=" butt" d="m58.61758,33.74199c-0.638,0 -1.282,-0.037 -1.915,-0.109c-0.549,-0.063 -0.942,-0.559 -0.879,-1.108c0.063,-0.548 0.554,-0.938 1.107,-0.879c0.558,0.064 1.125,0.097 1.687,0.097c8.042,0 14.584,-6.542 14.584,-14.584s-6.542,-14.585 -14.584,-14.585c-4.779,0 -9.263,2.354 -11.992,6.296c-0.374,0.539 -1.271,0.539 -1.645,0c-2.729,-3.942 -7.213,-6.296 -11.992,-6.296c-8.042,0 -14.584,6.542 -14.584,14.584s6.542,14.584 14.584,14.584c0.562,0 1.13,-0.032 1.687,-0.097c0.554,-0.06 1.045,0.331 1.108,0.879c0.063,0.549 -0.331,1.045 -0.879,1.108c-0.633,0.073 -1.277,0.109 -1.916,0.109c-9.145,0 -16.584,-7.439 -16.584,-16.584s7.44,-16.583 16.584,-16.583c4.98,0 9.676,2.246 12.815,6.068c3.139,-3.822 7.835,-6.068 12.814,-6.068c9.145,0 16.584,7.439 16.584,16.584s-7.439,16.584 -16.584,16.584z"/>
   <path id="svg_6" fill-rule=" nonzero" fill=" rgb(0,0,0)" stroke-miterlimit="10" stroke-linejoin=" miter" stroke-dasharray=" none" stroke=" none" stroke-linecap=" butt" d="m56.81858,68.07699l-22.029,0c-0.552,0 -1,-0.447 -1,-1l0,-41.7c0,-0.552 0.448,-1 1,-1s1,0.448 1,1l0,40.7l20.029,0l0,-40.7c0,-0.552 0.447,-1 1,-1s1,0.448 1,1l0,41.7c0,0.553 -0.448,1 -1,1z"/>
   <path id="svg_7" fill-rule=" nonzero" fill=" rgb(0,0,0)" stroke-miterlimit="10" stroke-linejoin=" miter" stroke-dasharray=" none" stroke=" none" stroke-linecap=" butt" d="m45.80358,90.57399c-9.403,0 -17.053,-7.649 -17.053,-17.053l0,-0.855c0,-3.633 2.956,-6.589 6.589,-6.589l20.927,0c3.633,0 6.589,2.956 6.589,6.589l0,0.855c0.001,9.404 -7.649,17.053 -17.052,17.053zm-10.463,-22.497c-2.531,0 -4.589,2.059 -4.589,4.589l0,0.855c-0.001,8.3 6.752,15.053 15.052,15.053c8.3,0 15.053,-6.753 15.053,-15.053l0,-0.855c0,-2.53 -2.059,-4.589 -4.589,-4.589l-20.927,0z"/>
   <path id="svg_8" fill-rule=" nonzero" fill=" rgb(0,0,0)" stroke-miterlimit="10" stroke-linejoin=" miter" stroke-dasharray=" none" stroke=" none" stroke-linecap=" butt" d="m45.80358,90.57399c-0.552,0 -1,-0.447 -1,-1l0,-7.525c0,-0.553 0.448,-1 1,-1s1,0.447 1,1l0,7.525c0,0.553 -0.448,1 -1,1z"/>
  </g>
  <text transform="rotate(-90 128.415 110.522) matrix(1.14904 0 0 1 -27.9974 0)" stroke="#000" xml:space="preserve" text-anchor="start" font-family="Noto Sans JP" font-size="24" id="svg_10" y="118.32886" x="76.6535" stroke-width="0" fill="#000000">На главную</text>
 </g>
</svg>